#!OML:ASF E:\emotionWalksFemale\Project 1\Capture day 1\Session 1\Female1.ASF
:FULLY-SPECIFIED
:DEGREES
87
root 8.90038 15.1176 41.9314 179.322 -16.3063 -179.078
lowerback 7.11453 2.42662 1.86501
upperback -3.36173 3.44385 0.516261
thorax -7.44452 1.59511 -0.961882
lowerneck -2.47006 17.1117 6.7612
upperneck 6.24256 22.8686 -4.28603
head 3.8623 11.3588 -1.31138
rclavicle -1.78409e-014 -1.25234e-014
rhumerus -46.5263 18.1359 -99.5391
rradius 35.2814
rwrist 11.3701
rhand -4.03704 -53.5979
rfingers 7.12502
rthumb -158.282 97.6004
lclavicle -1.78409e-014 -1.25234e-014
lhumerus -41.5142 -8.76235 93.3766
lradius 36.7344
lwrist -13.2992
lhand 0.467395 -34.3159
lfingers 7.12502
lthumb 26.038 -6.08024
rfemur -4.26265 12.1473 28.1463
rtibia 27.4095
rfoot -31.0147 -37.8056
rtoes 23.4192
lfemur -11.329 -23.2824 -22.9783
ltibia 31.5598
lfoot -23.2518 8.14843
ltoes -37.9394
88
root 8.90065 15.1168 41.9328 179.34 -16.3358 -179.036
lowerback 7.11079 2.41243 1.90111
upperback -3.3883 3.42811 0.516075
thorax -7.46912 1.5847 -0.98064
lowerneck -2.3852 17.1067 6.85735
upperneck 6.20083 22.866 -4.35637
head 3.85536 11.3592 -1.35424
rclavicle -1.28166e-013 -2.18663e-014
rhumerus -46.5712 18.1812 -99.6121
rradius 35.2945
rwrist 11.2778
rhand -4.10234 -53.5344
rfingers 7.12502
rthumb -158.344 97.6567
lclavicle -1.28166e-013 -2.18663e-014
lhumerus -41.4912 -8.46903 93.0779
lradius 35.8897
lwrist -14.8626
lhand -0.852339 -37.5899
lfingers 7.12502
lthumb 24.7737 -9.17442
rfemur -4.3077 12.1515 28.1856
rtibia 27.4368
rfoot -31.2029 -37.7525
rtoes 24.0853
lfemur -11.3351 -23.7122 -22.9474
ltibia 31.5417
lfoot -23.2051 8.49863
ltoes -37.3848
89
root 8.90115 15.1171 41.9316 179.387 -16.3414 -179.025
lowerback 7.065 2.41032 1.88315
upperback -3.40187 3.42205 0.518545
thorax -7.45844 1.58257 -0.965352
lowerneck -2.4143 17.1075 6.85977
upperneck 6.21242 22.8653 -4.34866
head 3.86397 11.3586 -1.34888
rclavicle -7.69918e-014 -7.7526e-015
rhumerus -46.628 18.2947 -99.7028
rradius 35.377
rwrist 11.094
rhand -4.0232 -53.7373
rfingers 7.12502
rthumb -158.268 97.4625
lclavicle -7.69918e-014 -7.7526e-015
lhumerus -41.5803 -8.89372 93.4156
lradius 36.7827
lwrist -13.1791
lhand 1.78673 -34.7402
lfingers 7.12502
lthumb 27.3006 -6.6967
rfemur -4.36201 12.118 28.1837
rtibia 27.4369
rfoot -31.3057 -37.6356
rtoes 24.6321
lfemur -11.4169 -23.4705 -22.8821
ltibia 31.5448
lfoot -23.2196 8.11331
ltoes -36.323
90
root 8.90038 15.1173 41.9313 179.412 -16.3614 -179.069
lowerback 7.05343 2.40194 1.84504
upperback -3.40251 3.40627 0.511093
thorax -7.45452 1.57666 -0.949325
lowerneck -2.42257 17.1207 6.85976
upperneck 6.24668 22.8835 -4.34643
head 3.87852 11.3669 -1.34407
rclavicle -3.79554e-014 -7.15625e-015
rhumerus -46.6344 18.2913 -99.6823
rradius 35.4236
rwrist 11.0147
rhand -3.83352 -53.9755
rfingers 7.12502
rthumb -158.086 97.2456
lclavicle -3.79554e-014 -7.15625e-015
lhumerus -41.5124 -8.47419 93.0586
lradius 35.7843
lwrist -15.201
lhand -1.61878 -38.0861
lfingers 7.12502
lthumb 24.039 -9.57163
rfemur -4.37636 12.0666 28.1297
rtibia 27.4374
rfoot -31.0961 -37.6865
rtoes 24.0013
lfemur -11.4539 -23.2195 -22.9037
ltibia 31.5399
lfoot -23.1815 7.8238
ltoes -36.403
91
root 8.89803 15.117 41.9308 179.407 -16.3759 -179.085
lowerback 7.02969 2.38793 1.829
upperback -3.39287 3.38599 0.524843
thorax -7.43272 1.5683 -0.921926
lowerneck -2.43782 17.1483 6.81378
upperneck 6.29493 22.9188 -4.28899
head 3.88584 11.3845 -1.3147
rclavicle -4.60435e-014 -7.35503e-015
rhumerus -46.498 18.0922 -99.4978
rradius 35.3121
rwrist 11.4923
rhand -3.90743 -53.7835
rfingers 7.12502
rthumb -158.157 97.4293
lclavicle -4.60435e-014 -7.35503e-015
lhumerus -41.5222 -8.65833 93.2857
lradius 36.1026
lwrist -14.5479
lhand -0.940152 -36.6289
lfingers 7.12502
lthumb 24.6896 -8.20188
rfemur -4.36087 11.942 28.0908
rtibia 27.4279
rfoot -31.0551 -37.7451
rtoes 23.7739
lfemur -11.4084 -23.4572 -22.9559
ltibia 31.5194
lfoot -23.1942 7.90931
ltoes -35.9326
92
root 8.89706 15.1188 41.9286 179.398 -16.3652 -179.044
lowerback 6.98977 2.40171 1.84602
upperback -3.38391 3.40545 0.534627
thorax -7.39918 1.57781 -0.9215
lowerneck -2.55709 17.1491 6.72937
upperneck 6.32059 22.9106 -4.18325
head 3.88895 11.3802 -1.26136
rclavicle 2.95816e-014 5.96354e-015
rhumerus -46.2972 17.7294 -99.2068
rradius 35.238
rwrist 12.6834
rhand -3.07611 -53.7319
rfingers 7.12502
rthumb -157.359 97.5761
lclavicle 2.95816e-014 5.96354e-015
lhumerus -41.3712 -8.42332 93.087
lradius 35.6158
lwrist -15.1802
lhand -1.70127 -38.2069
lfingers 7.12502
lthumb 23.9599 -9.682
rfemur -4.33847 11.9562 28.1369
rtibia 27.4098
rfoot -31.2283 -37.7975
rtoes 24.1014
lfemur -11.3584 -23.7299 -22.9435
ltibia 31.5154
lfoot -23.1662 8.22597
ltoes -36.0192
93
root 8.89829 15.1231 41.9251 179.451 -16.3403 -178.989
lowerback 6.90073 2.41782 1.85298
upperback -3.39801 3.42547 0.548468
thorax -7.36267 1.58775 -0.909452
lowerneck -2.6085 17.1413 6.69142
upperneck 6.2985 22.8963 -4.14867
head 3.8792 11.3731 -1.24411
rclavicle -1.59773e-014 1.0138e-014
rhumerus -46.4421 17.986 -99.4633
rradius 35.2092
rwrist 11.6473
rhand -4.20481 -53.4515
rfingers 7.12502
rthumb -158.443 97.7283
lclavicle -1.59773e-014 1.0138e-014
lhumerus -41.3868 -8.77259 93.389
lradius 36.5175
lwrist -13.3663
lhand 1.4085 -35.0976
lfingers 7.12502
lthumb 26.9388 -6.99774
rfemur -4.36485 12.1445 28.2184
rtibia 27.3743
rfoot -31.1843 -37.9737
rtoes 23.895
lfemur -11.4607 -23.1564 -22.8021
ltibia 31.5264
lfoot -23.0923 7.86921
ltoes -37.181
94
root 8.89591 15.1166 41.9269 179.234 -16.3598 -178.93
lowerback 7.12388 2.38613 1.95323
upperback -3.35066 3.40199 0.575327
thorax -7.43788 1.57163 -0.943828
lowerneck -2.52228 17.1534 6.74427
upperneck 6.28118 22.9192 -4.21886
head 3.87629 11.3845 -1.27835
rclavicle 2.59414e-014 3.18055e-015
rhumerus -46.4765 18.0732 -99.4724
rradius 35.2413
rwrist 11.5211
rhand -3.97574 -53.5943
rfingers 7.12502
rthumb -158.223 97.6108
lclavicle 2.59414e-014 3.18055e-015
lhumerus -41.3111 -8.33484 93.0532
lradius 35.6153
lwrist -15.0448
lhand -1.42305 -38.2994
lfingers 7.12502
lthumb 24.2267 -9.8098
rfemur -4.14884 12.1302 28.3125
rtibia 27.3803
rfoot -31.2464 -38.0219
rtoes 23.5044
lfemur -11.1746 -23.8577 -22.9053
ltibia 31.5253
lfoot -23.1286 8.55632
ltoes -37.2724
95
root 8.89306 15.1161 41.9252 179.242 -16.361 -179.002
lowerback 7.12686 2.38447 1.93401
upperback -3.35669 3.39552 0.531154
thorax -7.44452 1.56834 -0.978864
lowerneck -2.4328 17.1577 6.89074
upperneck 6.26829 22.931 -4.33214
head 3.89309 11.3912 -1.33746
rclavicle 7.53518e-014 2.06736e-014
rhumerus -46.338 17.7567 -99.2336
rradius 35.2615
rwrist 12.5833
rhand -2.77127 -53.9386
rfingers 7.12502
rthumb -157.067 97.4054
lclavicle 7.53518e-014 2.06736e-014
lhumerus -41.441 -8.75985 93.3813
lradius 36.4879
lwrist -13.3606
lhand 1.33749 -35.3246
lfingers 7.12502
lthumb 26.8708 -7.21426
rfemur -4.13999 12.0797 28.2192
rtibia 27.4019
rfoot -31.4021 -37.8041
rtoes 23.8983
lfemur -11.2125 -23.2191 -22.9426
ltibia 31.5119
lfoot -23.1656 8.05814
ltoes -37.1845
96
root 8.89079 15.118 41.9245 179.395 -16.3318 -179.139
lowerback 7.03986 2.41248 1.84247
upperback -3.41363 3.41643 0.454253
thorax -7.45485 1.58037 -1.0084
lowerneck -2.39081 17.1322 6.97376
upperneck 6.22184 22.897 -4.37371
head 3.88434 11.3762 -1.36909
rclavicle -1.27346e-014 7.95139e-015
rhumerus -46.4371 17.884 -99.5143
rradius 35.1089
rwrist 11.7132
rhand -4.15706 -53.4514
rfingers 7.12502
rthumb -158.397 97.7336
lclavicle -1.27346e-014 7.95139e-015
lhumerus -41.4373 -8.43877 93.0205
lradius 35.664
lwrist -14.9563
lhand -0.944935 -38.1253
lfingers 7.12502
lthumb 24.685 -9.69758
rfemur -4.29651 12.0099 28.031
rtibia 27.4548
rfoot -31.3341 -37.5944
rtoes 24.6779
lfemur -11.2793 -23.6999 -23.1002
ltibia 31.4899
lfoot -23.1334 8.57302
ltoes -37.1813
97
root 8.89089 15.1202 41.9255 179.515 -16.3419 -179.178
lowerback 6.96056 2.40789 1.77497
upperback -3.46189 3.40083 0.457617
thorax -7.46499 1.5751 -0.962603
lowerneck -2.32462 17.1184 6.94254
upperneck 6.16156 22.8799 -4.35398
head 3.84238 11.3698 -1.37066
rclavicle 9.56651e-015 4.57205e-015
rhumerus -46.4418 17.9518 -99.5798
rradius 34.9786
rwrist 11.5121
rhand -4.28637 -53.451
rfingers 7.12502
rthumb -158.521 97.7199
lclavicle 9.56651e-015 4.57205e-015
lhumerus -41.4962 -8.72028 93.3297
lradius 36.4461
lwrist -13.478
lhand 1.30658 -35.4592
lfingers 7.12502
lthumb 26.8412 -7.34433
rfemur -4.42909 11.9764 27.9629
rtibia 27.4821
rfoot -31.2901 -37.7281
rtoes 24.4872
lfemur -11.421 -23.504 -23.0656
ltibia 31.4728
lfoot -23.1457 8.19962
ltoes -36.9152
